<svg xmlns="http://www.w3.org/2000/svg" width="207.862" height="52.003" viewBox="0 0 207.862 52.003">
  <g id="Group_271" data-name="Group 271" transform="translate(167 2435)">
    <g id="Group_268" data-name="Group 268" transform="translate(2164 1379)">
      <g id="Logo" transform="translate(-2168 -1350.961)">
        <path id="Path_298" data-name="Path 298" d="M3.036-31.416V0H9.5V-21.032h.088L22.66,0h6.908V-31.416H23.1V-10.34h-.088L9.9-31.416ZM40.524-11.352a13.652,13.652,0,0,1,.264-2.684,6.848,6.848,0,0,1,.9-2.332,5.066,5.066,0,0,1,1.694-1.65,5.028,5.028,0,0,1,2.64-.638,5.147,5.147,0,0,1,2.662.638,5,5,0,0,1,1.716,1.65,6.848,6.848,0,0,1,.9,2.332,13.652,13.652,0,0,1,.264,2.684A13.323,13.323,0,0,1,51.3-8.69a7.092,7.092,0,0,1-.9,2.332,4.749,4.749,0,0,1-1.716,1.65,5.3,5.3,0,0,1-2.662.616,5.171,5.171,0,0,1-2.64-.616,4.8,4.8,0,0,1-1.694-1.65,7.092,7.092,0,0,1-.9-2.332A13.323,13.323,0,0,1,40.524-11.352Zm-6.248,0a13.784,13.784,0,0,0,.836,4.928,10.69,10.69,0,0,0,2.376,3.762,10.394,10.394,0,0,0,3.7,2.4,13.3,13.3,0,0,0,4.84.836,13.474,13.474,0,0,0,4.862-.836,10.355,10.355,0,0,0,3.718-2.4A10.69,10.69,0,0,0,56.98-6.424a13.784,13.784,0,0,0,.836-4.928,13.965,13.965,0,0,0-.836-4.95A10.653,10.653,0,0,0,54.6-20.086a10.6,10.6,0,0,0-3.718-2.42,13.165,13.165,0,0,0-4.862-.858,12.992,12.992,0,0,0-4.84.858,10.647,10.647,0,0,0-3.7,2.42A10.653,10.653,0,0,0,35.112-16.3,13.965,13.965,0,0,0,34.276-11.352Zm27.588-11.4V0h6.248V-10.252a12.574,12.574,0,0,1,.308-2.86,6.263,6.263,0,0,1,1.034-2.31,5.03,5.03,0,0,1,1.914-1.562,6.656,6.656,0,0,1,2.9-.572,11.158,11.158,0,0,1,1.188.066q.616.066,1.056.154v-5.808a4.873,4.873,0,0,0-1.364-.22,7.461,7.461,0,0,0-2.288.352,8.384,8.384,0,0,0-2.068.99,7.783,7.783,0,0,0-1.716,1.54,7.684,7.684,0,0,0-1.188,1.958H67.8v-4.224ZM93.5-13.816H83.336a7.172,7.172,0,0,1,.286-1.5,4.593,4.593,0,0,1,.836-1.584,4.733,4.733,0,0,1,1.584-1.254,5.435,5.435,0,0,1,2.486-.506,4.388,4.388,0,0,1,3.41,1.232A7.221,7.221,0,0,1,93.5-13.816ZM83.336-9.856H99.748a16.06,16.06,0,0,0-.44-5.06,12.385,12.385,0,0,0-2-4.312,10.1,10.1,0,0,0-3.542-3.014,10.817,10.817,0,0,0-5.06-1.122,11.782,11.782,0,0,0-4.73.924A11.183,11.183,0,0,0,80.3-19.91,11.152,11.152,0,0,0,77.924-16.1a13.267,13.267,0,0,0-.836,4.752,13.851,13.851,0,0,0,.814,4.84,10.991,10.991,0,0,0,2.31,3.784A10.063,10.063,0,0,0,83.864-.286,12.992,12.992,0,0,0,88.7.572a11.916,11.916,0,0,0,6.6-1.76A10.441,10.441,0,0,0,99.352-7.04h-5.5a3.924,3.924,0,0,1-1.672,2,5.57,5.57,0,0,1-3.256.946,5.585,5.585,0,0,1-4.048-1.364A6.316,6.316,0,0,1,83.336-9.856ZM114.664,2.816l9.5-25.564H117.7L112.728-7.172h-.088l-5.148-15.576h-6.644l7.964,21.34A3.756,3.756,0,0,1,109.076,0a3.119,3.119,0,0,1-.594,1.848,2.428,2.428,0,0,1-1.826.968,12.964,12.964,0,0,1-1.848-.044q-.924-.088-1.8-.176V7.744q.968.088,1.914.154t1.914.066a9.061,9.061,0,0,0,5.016-1.188A7.694,7.694,0,0,0,114.664,2.816Z" transform="translate(-107 -2419)" fill="#0a2533"/>
      </g>
      <g id="Group_269" data-name="Group 269" transform="translate(-1 12)">
        <path id="Path_7" data-name="Path 7" d="M10,0H40a10.138,10.138,0,0,1,7.515,3.4A9.77,9.77,0,0,1,50,10V42A10,10,0,0,1,40,52H10A10,10,0,0,1,0,42V10A10,10,0,0,1,10,0Z" transform="translate(-2330 -3826)" fill="#fd7139"/>
        <g id="Rectangle_26" data-name="Rectangle 26" transform="translate(-2318 -3818)" fill="none" stroke="#fff" stroke-width="4">
          <rect width="26" height="37" rx="13" stroke="none"/>
          <rect x="2" y="2" width="22" height="33" rx="11" fill="none"/>
        </g>
        <line id="Line_6" data-name="Line 6" y2="4.03" transform="translate(-2305 -3809.325)" fill="none" stroke="#fff" stroke-linecap="round" stroke-width="2"/>
        <path id="Path_8" data-name="Path 8" d="M0,0H19" transform="translate(-2314.5 -3800)" fill="none" stroke="#fff" stroke-width="3"/>
        <path id="Path_193" data-name="Path 193" d="M-2300.664-3778.114s-.721,2.471,3.622,3.836c2.832.89,3.2,2.438,3.075,3.718V-3769" transform="translate(-4 -5)" fill="none" stroke="#fff" stroke-width="2"/>
      </g>
    </g>
    <path id="Path_301" data-name="Path 301" d="M2.424-10.6v-1.514h1.3a.907.907,0,0,1,.61.177.717.717,0,0,1,.2.569.75.75,0,0,1-.2.587.894.894,0,0,1-.61.181ZM1.242-13.03v5.378H2.424v-2.1H3.607a.88.88,0,0,1,.64.2A1.068,1.068,0,0,1,4.5-8.94q.045.324.068.678a2.085,2.085,0,0,0,.121.61H5.874a.791.791,0,0,1-.124-.275,2.375,2.375,0,0,1-.06-.343q-.019-.181-.026-.354t-.015-.3a3.232,3.232,0,0,0-.056-.407A1.368,1.368,0,0,0,5.46-9.7,1.023,1.023,0,0,0,5.226-10a.912.912,0,0,0-.362-.185V-10.2a1.254,1.254,0,0,0,.651-.527,1.617,1.617,0,0,0,.2-.821,1.509,1.509,0,0,0-.109-.576,1.39,1.39,0,0,0-.316-.471,1.5,1.5,0,0,0-.5-.32,1.731,1.731,0,0,0-.651-.117Zm5.438,0v5.378h4.082v-.994h-2.9V-9.965h2.606v-.919H7.862v-1.152H10.7v-.994Zm4.881,0v5.378h1.107v-3.773h.015L14-7.652h.911l1.318-3.811h.015v3.811h1.107V-13.03H15.688l-1.19,3.7h-.015l-1.258-3.7Zm7.78,2.711A2.943,2.943,0,0,1,19.42-11a1.815,1.815,0,0,1,.252-.591,1.28,1.28,0,0,1,.452-.414,1.38,1.38,0,0,1,.678-.154,1.38,1.38,0,0,1,.678.154,1.28,1.28,0,0,1,.452.414,1.815,1.815,0,0,1,.252.591,2.943,2.943,0,0,1,.079.685,2.737,2.737,0,0,1-.079.659,1.781,1.781,0,0,1-.252.576,1.293,1.293,0,0,1-.452.41,1.38,1.38,0,0,1-.678.154,1.38,1.38,0,0,1-.678-.154,1.293,1.293,0,0,1-.452-.41,1.781,1.781,0,0,1-.252-.576A2.737,2.737,0,0,1,19.341-10.319Zm-1.182,0a3.248,3.248,0,0,0,.181,1.1,2.617,2.617,0,0,0,.52.885,2.38,2.38,0,0,0,.832.591,2.758,2.758,0,0,0,1.111.215,2.75,2.75,0,0,0,1.115-.215,2.389,2.389,0,0,0,.828-.591,2.617,2.617,0,0,0,.52-.885,3.248,3.248,0,0,0,.181-1.1,3.36,3.36,0,0,0-.181-1.118,2.687,2.687,0,0,0-.52-.9,2.385,2.385,0,0,0-.828-.6,2.709,2.709,0,0,0-1.115-.218,2.716,2.716,0,0,0-1.111.218,2.376,2.376,0,0,0-.832.6,2.687,2.687,0,0,0-.52.9A3.36,3.36,0,0,0,18.158-10.319Zm7.283-1.717v4.384h1.182v-4.384h1.612v-.994H23.83v.994Zm3.412-.994v5.378h4.082v-.994h-2.9V-9.965h2.606v-.919H30.036v-1.152h2.839v-.994Z" transform="translate(7.926 -2375.465)" fill="#fd7139"/>
  </g>
</svg>
