<svg xmlns="http://www.w3.org/2000/svg" width="268" height="53.405" viewBox="0 0 268 53.405">
  <g id="Logo" transform="translate(2330 3826)">
    <g id="Group_34" data-name="Group 34" transform="translate(1)">
      <g id="Logo-2" data-name="Logo" transform="translate(-2164 -1365)">
        <text id="Norey" transform="translate(-107 -2421)" fill="#fff" font-size="44" font-family="PTSans-CaptionBold, PT Sans Caption" font-weight="700"><tspan x="0" y="0">Norey</tspan></text>
        <g id="Group_25" data-name="Group 25" transform="translate(12 -4.39)">
          <path id="Path_7" data-name="Path 7" d="M10,0H40a10.138,10.138,0,0,1,7.515,3.4A9.77,9.77,0,0,1,50,10V42A10,10,0,0,1,40,52H10A10,10,0,0,1,0,42V10A10,10,0,0,1,10,0Z" transform="translate(-179 -2456.61)" fill="#fd7139"/>
        </g>
        <text id="Remote" transform="translate(23 -2423)" fill="#fd7139" font-size="18" font-family="HelveticaNeue-Bold, Helvetica Neue" font-weight="700"><tspan x="0" y="0">REMOTE</tspan></text>
      </g>
      <g id="Group_33" data-name="Group 33" transform="translate(-105.976 59.413)">
        <g id="Rectangle_26" data-name="Rectangle 26" transform="translate(-2213.024 -3877.413)" fill="none" stroke="#fff" stroke-width="5">
          <rect width="26" height="37" rx="13" stroke="none"/>
          <rect x="2.5" y="2.5" width="21" height="32" rx="10.5" fill="none"/>
        </g>
        <line id="Line_6" data-name="Line 6" y2="4.03" transform="translate(-2200.024 -3868.738)" fill="none" stroke="#fff" stroke-linecap="round" stroke-width="2"/>
      </g>
    </g>
    <path id="Path_8" data-name="Path 8" d="M0,0H19" transform="translate(-2314.5 -3800)" fill="none" stroke="#fff" stroke-width="3"/>
    <path id="Path_193" data-name="Path 193" d="M-2301.971-3780.922s.586,5.28,4.929,6.645c2.832.89,3.2,2.438,3.075,3.718l-.023.156h-1.228l1.075.4h0" transform="translate(-3 -4)" fill="none" stroke="#fff" stroke-width="3"/>
  </g>
</svg>
