<svg xmlns="http://www.w3.org/2000/svg" width="264.986" height="53.405" viewBox="0 0 264.986 53.405">
  <g id="Group_268" data-name="Group 268" transform="translate(2330 3820)">
    <g id="Group_34" data-name="Group 34" transform="translate(-1)">
      <g id="Logo" transform="translate(-2164 -1365)">
        <path id="Path_298" data-name="Path 298" d="M3.036-31.416V0H9.5V-21.032h.088L22.66,0h6.908V-31.416H23.1V-10.34h-.088L9.9-31.416ZM40.524-11.352a13.652,13.652,0,0,1,.264-2.684,6.848,6.848,0,0,1,.9-2.332,5.066,5.066,0,0,1,1.694-1.65,5.028,5.028,0,0,1,2.64-.638,5.147,5.147,0,0,1,2.662.638,5,5,0,0,1,1.716,1.65,6.848,6.848,0,0,1,.9,2.332,13.652,13.652,0,0,1,.264,2.684A13.323,13.323,0,0,1,51.3-8.69a7.092,7.092,0,0,1-.9,2.332,4.749,4.749,0,0,1-1.716,1.65,5.3,5.3,0,0,1-2.662.616,5.171,5.171,0,0,1-2.64-.616,4.8,4.8,0,0,1-1.694-1.65,7.092,7.092,0,0,1-.9-2.332A13.323,13.323,0,0,1,40.524-11.352Zm-6.248,0a13.784,13.784,0,0,0,.836,4.928,10.69,10.69,0,0,0,2.376,3.762,10.394,10.394,0,0,0,3.7,2.4,13.3,13.3,0,0,0,4.84.836,13.474,13.474,0,0,0,4.862-.836,10.355,10.355,0,0,0,3.718-2.4A10.69,10.69,0,0,0,56.98-6.424a13.784,13.784,0,0,0,.836-4.928,13.965,13.965,0,0,0-.836-4.95A10.653,10.653,0,0,0,54.6-20.086a10.6,10.6,0,0,0-3.718-2.42,13.165,13.165,0,0,0-4.862-.858,12.992,12.992,0,0,0-4.84.858,10.647,10.647,0,0,0-3.7,2.42A10.653,10.653,0,0,0,35.112-16.3,13.965,13.965,0,0,0,34.276-11.352Zm27.588-11.4V0h6.248V-10.252a12.574,12.574,0,0,1,.308-2.86,6.263,6.263,0,0,1,1.034-2.31,5.03,5.03,0,0,1,1.914-1.562,6.656,6.656,0,0,1,2.9-.572,11.158,11.158,0,0,1,1.188.066q.616.066,1.056.154v-5.808a4.873,4.873,0,0,0-1.364-.22,7.461,7.461,0,0,0-2.288.352,8.384,8.384,0,0,0-2.068.99,7.783,7.783,0,0,0-1.716,1.54,7.684,7.684,0,0,0-1.188,1.958H67.8v-4.224ZM93.5-13.816H83.336a7.172,7.172,0,0,1,.286-1.5,4.593,4.593,0,0,1,.836-1.584,4.733,4.733,0,0,1,1.584-1.254,5.435,5.435,0,0,1,2.486-.506,4.388,4.388,0,0,1,3.41,1.232A7.221,7.221,0,0,1,93.5-13.816ZM83.336-9.856H99.748a16.06,16.06,0,0,0-.44-5.06,12.385,12.385,0,0,0-2-4.312,10.1,10.1,0,0,0-3.542-3.014,10.817,10.817,0,0,0-5.06-1.122,11.782,11.782,0,0,0-4.73.924A11.183,11.183,0,0,0,80.3-19.91,11.152,11.152,0,0,0,77.924-16.1a13.267,13.267,0,0,0-.836,4.752,13.851,13.851,0,0,0,.814,4.84,10.991,10.991,0,0,0,2.31,3.784A10.063,10.063,0,0,0,83.864-.286,12.992,12.992,0,0,0,88.7.572a11.916,11.916,0,0,0,6.6-1.76A10.441,10.441,0,0,0,99.352-7.04h-5.5a3.924,3.924,0,0,1-1.672,2,5.57,5.57,0,0,1-3.256.946,5.585,5.585,0,0,1-4.048-1.364A6.316,6.316,0,0,1,83.336-9.856ZM114.664,2.816l9.5-25.564H117.7L112.728-7.172h-.088l-5.148-15.576h-6.644l7.964,21.34A3.756,3.756,0,0,1,109.076,0a3.119,3.119,0,0,1-.594,1.848,2.428,2.428,0,0,1-1.826.968,12.964,12.964,0,0,1-1.848-.044q-.924-.088-1.8-.176V7.744q.968.088,1.914.154t1.914.066a9.061,9.061,0,0,0,5.016-1.188A7.694,7.694,0,0,0,114.664,2.816Z" transform="translate(-107 -2413)" fill="#fff"/>
        <path id="Path_299" data-name="Path 299" d="M4.068-7.038v-3.618h3.1a2.169,2.169,0,0,1,1.458.423,1.713,1.713,0,0,1,.486,1.359,1.793,1.793,0,0,1-.486,1.4,2.138,2.138,0,0,1-1.458.432ZM1.242-12.852V0H4.068V-5.022H6.894a2.1,2.1,0,0,1,1.53.468,2.553,2.553,0,0,1,.612,1.476q.108.774.162,1.62A4.983,4.983,0,0,0,9.486,0h2.826a1.891,1.891,0,0,1-.3-.657,5.675,5.675,0,0,1-.144-.819q-.045-.432-.063-.846t-.036-.72a7.724,7.724,0,0,0-.135-.972,3.268,3.268,0,0,0-.315-.891,2.445,2.445,0,0,0-.558-.7A2.18,2.18,0,0,0,9.9-6.048v-.036a3,3,0,0,0,1.557-1.26,3.864,3.864,0,0,0,.477-1.962,3.606,3.606,0,0,0-.261-1.377,3.321,3.321,0,0,0-.756-1.125,3.584,3.584,0,0,0-1.188-.765,4.137,4.137,0,0,0-1.557-.279Zm13,0V0h9.756V-2.376h-6.93v-3.15h6.228v-2.2H17.064v-2.754H23.85v-2.376Zm11.664,0V0h2.646V-9.018h.036L31.734,0h2.178l3.15-9.108H37.1V0h2.646V-12.852H35.766L32.922-4.014h-.036L29.88-12.852ZM44.5-6.372a7.033,7.033,0,0,1,.189-1.638,4.338,4.338,0,0,1,.6-1.413,3.059,3.059,0,0,1,1.08-.99,3.3,3.3,0,0,1,1.62-.369,3.3,3.3,0,0,1,1.62.369,3.059,3.059,0,0,1,1.08.99,4.338,4.338,0,0,1,.6,1.413,7.033,7.033,0,0,1,.189,1.638A6.542,6.542,0,0,1,51.291-4.8a4.257,4.257,0,0,1-.6,1.377,3.091,3.091,0,0,1-1.08.981,3.3,3.3,0,0,1-1.62.369,3.3,3.3,0,0,1-1.62-.369,3.091,3.091,0,0,1-1.08-.981,4.256,4.256,0,0,1-.6-1.377A6.542,6.542,0,0,1,44.5-6.372Zm-2.826,0A7.762,7.762,0,0,0,42.1-3.753a6.255,6.255,0,0,0,1.242,2.115A5.689,5.689,0,0,0,45.333-.225a6.59,6.59,0,0,0,2.655.513,6.573,6.573,0,0,0,2.664-.513,5.709,5.709,0,0,0,1.98-1.413,6.255,6.255,0,0,0,1.242-2.115,7.762,7.762,0,0,0,.432-2.619,8.03,8.03,0,0,0-.432-2.673A6.421,6.421,0,0,0,52.632-11.2a5.7,5.7,0,0,0-1.98-1.44,6.475,6.475,0,0,0-2.664-.522,6.492,6.492,0,0,0-2.655.522,5.679,5.679,0,0,0-1.989,1.44A6.421,6.421,0,0,0,42.1-9.045,8.03,8.03,0,0,0,41.67-6.372Zm17.406-4.1V0H61.9V-10.476h3.852v-2.376H55.224v2.376Zm8.154-2.376V0h9.756V-2.376h-6.93v-3.15h6.228v-2.2H70.056v-2.754h6.786v-2.376Z" transform="translate(23 -2423)" fill="#fd7139"/>
      </g>
    </g>
    <g id="Group_269" data-name="Group 269" transform="translate(0 6)">
      <g id="Group_25" data-name="Group 25" transform="translate(-2151 -1369.39)">
        <path id="Path_7" data-name="Path 7" d="M10,0H40a10.138,10.138,0,0,1,7.515,3.4A9.77,9.77,0,0,1,50,10V42A10,10,0,0,1,40,52H10A10,10,0,0,1,0,42V10A10,10,0,0,1,10,0Z" transform="translate(-179 -2456.61)" fill="#fd7139"/>
      </g>
      <g id="Group_33" data-name="Group 33" transform="translate(-104.976 59.413)">
        <g id="Rectangle_26" data-name="Rectangle 26" transform="translate(-2213.024 -3877.413)" fill="none" stroke="#fff" stroke-width="5">
          <rect width="26" height="37" rx="13" stroke="none"/>
          <rect x="2.5" y="2.5" width="21" height="32" rx="10.5" fill="none"/>
        </g>
        <line id="Line_6" data-name="Line 6" y2="4.03" transform="translate(-2200.024 -3868.738)" fill="none" stroke="#fff" stroke-linecap="round" stroke-width="2"/>
      </g>
      <path id="Path_8" data-name="Path 8" d="M0,0H19" transform="translate(-2314.5 -3800)" fill="none" stroke="#fff" stroke-width="3"/>
      <path id="Path_193" data-name="Path 193" d="M-2301.971-3780.922s.586,5.28,4.929,6.645c2.832.89,3.2,2.438,3.075,3.718l-.023.156h-1.228l1.075.4h0" transform="translate(-3 -4)" fill="none" stroke="#fff" stroke-width="3"/>
    </g>
  </g>
</svg>
